# xmcd
# 
# Track frame offsets:
#     183
#     21778
#     42653
#     57515
#     77358
#     92920
#     108940
#     125608
#     141453
#     160698
#     174193
#     190983
#     203468
#     216863
#     235713
#     255965
#     274520
#     292823
#     305395
# 
# Disc length: 4288
# 
# Revision: 1
# Processed by: cddbd v1.5.2PL0 Copyright (c) Steve Scherf et al.
# Submitted via: fre:ac v1.1beta1pre5
# 
DISCID=fd10be13
DTITLE=Bródy János - Hang nélkül
DYEAR=1989
DGENRE=Rock
TTITLE0=Engedd, hogy szabad legyek
TTITLE1=Hull az eső
TTITLE2=Egy hétig tart
TTITLE3=A magány
TTITLE4=Filléres emlékeim
TTITLE5=Álmodom
TTITLE6=Nem történt semmi
TTITLE7=Hang nélkül
TTITLE8=Mama kérlek
TTITLE9=A fiam meg a lányom
TTITLE10=Légy hű magadhoz
TTITLE11=Hungarian Blues
TTITLE12=A szavak
TTITLE13=Ne szólj szám
TTITLE14=Földvár felé félúton
TTITLE15=Átmeneti állapot
TTITLE16=Suttog a szél
TTITLE17=Zárt osztály
TTITLE18=Ha én rózsa volnék
EXTD=Hungaroton HCD 37159\n(P) 1989
EXTT0=
EXTT1=
EXTT2=
EXTT3=
EXTT4=
EXTT5=
EXTT6=
EXTT7=
EXTT8=
EXTT9=
EXTT10=
EXTT11=
EXTT12=
EXTT13=
EXTT14=
EXTT15=
EXTT16=
EXTT17=
EXTT18=
PLAYORDER=
